<svg xmlns="http://www.w3.org/2000/svg" viewBox="0 0 128 128" role="img" aria-labelledby="t d">
  <title id="t">Quran Ilya</title>
  <desc id="d">Green square with white book icon</desc>
  <defs>
    <linearGradient id="g" x1="0" y1="0" x2="1" y2="1">
      <stop offset="0%" stop-color="#10b981"/>
      <stop offset="100%" stop-color="#0f766e"/>
    </linearGradient>
  </defs>
  <rect x="8" y="8" width="112" height="112" rx="24" fill="url(#g)"/>
  <g transform="translate(28 22)" fill="none" stroke="#f8fafc" stroke-width="6" stroke-linecap="round" stroke-linejoin="round">
    <path d="M36 20v70"/>
    <path d="M0 88a4 4 0 0 1-4-4V8A4 4 0 0 1 0 4h22c10 0 18 8 18 18 0-10 8-18 18-18h22a4 4 0 0 1 4 4v76a4 4 0 0 1-4 4H56a12 12 0 0 0-12 12A12 12 0 0 0 32 88z"/>
  </g>
</svg>
